<svg width="42" height="40" viewBox="0 0 42 40" fill="none" xmlns="http://www.w3.org/2000/svg">
<path fill-rule="evenodd" clip-rule="evenodd" d="M12.3423 0.12C14.5816 0.0218182 15.2956 0 21 0C26.7044 0 27.4184 0.0236363 29.6558 0.12C31.8933 0.216364 33.4205 0.556364 34.7569 1.04909C36.1563 1.55273 37.4258 2.34 38.4758 3.35818C39.5449 4.35636 40.3696 5.56364 40.8965 6.89818C41.4158 8.17091 41.7709 9.62546 41.874 11.7527C41.9771 13.8891 42 14.5691 42 20C42 25.4327 41.9752 26.1127 41.874 28.2455C41.7728 30.3727 41.4158 31.8273 40.8965 33.1C40.3696 34.4347 39.5435 35.644 38.4758 36.6436C37.4258 37.6618 36.1563 38.4473 34.7569 38.9491C33.4205 39.4436 31.8933 39.7818 29.6596 39.88C27.4184 39.9782 26.7044 40 21 40C15.2956 40 14.5816 39.9764 12.3423 39.88C10.1086 39.7836 8.58136 39.4436 7.245 38.9491C5.84358 38.4472 4.57384 37.6605 3.52418 36.6436C2.45582 35.6449 1.62906 34.4362 1.10155 33.1018C0.584182 31.8291 0.229091 30.3745 0.126 28.2473C0.0229091 26.1109 0 25.4309 0 20C0 14.5673 0.0248182 13.8873 0.126 11.7564C0.227182 9.62545 0.584182 8.17091 1.10155 6.89818C1.62983 5.56378 2.45723 4.35512 3.52609 3.35636C4.57426 2.33909 5.84272 1.55172 7.24309 1.04909C8.57945 0.556364 10.1067 0.218182 12.3404 0.12H12.3423ZM29.4859 3.72C27.2714 3.62364 26.607 3.60364 21 3.60364C15.393 3.60364 14.7286 3.62364 12.5141 3.72C10.4656 3.80909 9.35455 4.13455 8.61382 4.40909C7.63445 4.77273 6.93382 5.20364 6.19882 5.90364C5.50209 6.54919 4.96589 7.33506 4.62955 8.20364C4.34127 8.90909 3.99955 9.96727 3.906 11.9182C3.80482 14.0273 3.78382 14.66 3.78382 20C3.78382 25.34 3.80482 25.9727 3.906 28.0818C3.99955 30.0327 4.34127 31.0909 4.62955 31.7964C4.96555 32.6636 5.502 33.4509 6.19882 34.0964C6.87655 34.76 7.70318 35.2709 8.61382 35.5909C9.35455 35.8655 10.4656 36.1909 12.5141 36.28C14.7286 36.3764 15.3911 36.3964 21 36.3964C26.6089 36.3964 27.2714 36.3764 29.4859 36.28C31.5344 36.1909 32.6455 35.8655 33.3862 35.5909C34.3655 35.2273 35.0662 34.7964 35.8012 34.0964C36.498 33.4509 37.0345 32.6636 37.3705 31.7964C37.6587 31.0909 38.0005 30.0327 38.094 28.0818C38.1952 25.9727 38.2162 25.34 38.2162 20C38.2162 14.66 38.1952 14.0273 38.094 11.9182C38.0005 9.96727 37.6587 8.90909 37.3705 8.20364C36.9886 7.27091 36.5362 6.60364 35.8012 5.90364C35.1233 5.24013 34.2982 4.72947 33.3862 4.40909C32.6455 4.13455 31.5344 3.80909 29.4859 3.72V3.72ZM18.3177 26.1655C19.8157 26.7593 21.4837 26.8395 23.0369 26.3922C24.59 25.945 25.9319 24.998 26.8334 23.7132C27.7349 22.4283 28.1401 20.8852 27.9797 19.3475C27.8193 17.8097 27.1034 16.3727 25.9541 15.2818C25.2215 14.5845 24.3356 14.0506 23.3603 13.7184C22.385 13.3863 21.3445 13.2643 20.3137 13.3611C19.2829 13.4579 18.2875 13.7712 17.3991 14.2784C16.5107 14.7856 15.7514 15.4741 15.1759 16.2943C14.6005 17.1145 14.2231 18.046 14.071 19.0217C13.9189 19.9975 13.9958 20.9933 14.2963 21.9373C14.5968 22.8813 15.1133 23.7502 15.8086 24.4813C16.504 25.2124 17.3609 25.7876 18.3177 26.1655ZM13.3675 12.7309C14.3698 11.7763 15.5597 11.0191 16.8693 10.5025C18.1789 9.98585 19.5825 9.71995 21 9.71995C22.4175 9.71995 23.8211 9.98585 25.1307 10.5025C26.4403 11.0191 27.6302 11.7763 28.6325 12.7309C29.6349 13.6855 30.4299 14.8188 30.9724 16.066C31.5149 17.3132 31.794 18.65 31.794 20C31.794 21.35 31.5149 22.6868 30.9724 23.934C30.4299 25.1812 29.6349 26.3145 28.6325 27.2691C26.6083 29.197 23.8628 30.28 21 30.28C18.1372 30.28 15.3917 29.197 13.3675 27.2691C11.3432 25.3412 10.206 22.7264 10.206 20C10.206 17.2736 11.3432 14.6588 13.3675 12.7309V12.7309ZM34.188 11.2509C34.4364 11.0278 34.6352 10.7594 34.7728 10.4618C34.9103 10.1641 34.9837 9.84322 34.9887 9.51805C34.9937 9.19289 34.9301 8.87009 34.8017 8.56875C34.6734 8.2674 34.4828 7.99366 34.2414 7.76371C33.9999 7.53376 33.7125 7.35229 33.3961 7.23003C33.0797 7.10778 32.7407 7.04723 32.3993 7.05197C32.0579 7.05671 31.7209 7.12664 31.4084 7.25763C31.0959 7.38862 30.8141 7.57799 30.5798 7.81455C30.1241 8.2746 29.8747 8.88568 29.8843 9.51805C29.894 10.1504 30.1621 10.7543 30.6317 11.2015C31.1012 11.6487 31.7353 11.9041 32.3993 11.9133C33.0633 11.9225 33.7049 11.6849 34.188 11.2509V11.2509Z" fill="#FE9664"/>
</svg>
