<svg width="36" height="35" viewBox="0 0 36 35" fill="none" xmlns="http://www.w3.org/2000/svg">
<path d="M8.17228 34.9634V12.0237H0.455299V34.9634H8.17228ZM4.31479 8.88977C7.00584 8.88977 8.68088 7.12826 8.68088 4.92697C8.63075 2.67604 7.00594 0.963424 4.36586 0.963424C1.72618 0.963424 0 2.67607 0 4.92697C0 7.12837 1.67464 8.88977 4.26441 8.88977H4.31479ZM12.4436 34.9634H20.1606V22.1527C20.1606 21.4671 20.2107 20.7822 20.4145 20.2921C20.9724 18.9223 22.2421 17.5036 24.3739 17.5036C27.1664 17.5036 28.2835 19.6072 28.2835 22.691V34.9633H36V21.8098C36 14.7636 32.1928 11.4851 27.1155 11.4851C22.9525 11.4851 21.1247 13.7843 20.1093 15.3502H20.1608V12.0232H12.4438C12.5451 14.1757 12.4436 34.9634 12.4436 34.9634Z" fill="#FE9664"/>
</svg>
