<svg width="46" height="37" viewBox="0 0 46 37" fill="none" xmlns="http://www.w3.org/2000/svg">
<path d="M46 4.3781C44.3099 5.12212 42.4895 5.6232 40.5795 5.8497C42.5291 4.69317 44.0261 2.86348 44.7305 0.682021C42.9062 1.75124 40.8876 2.52943 38.7373 2.94952C37.0153 1.13249 34.562 0 31.8479 0C26.6371 0 22.4106 4.18197 22.4106 9.34079C22.4106 10.0722 22.4937 10.7858 22.6548 11.4678C14.8117 11.0794 7.85715 7.36052 3.20243 1.70948C2.39064 3.08871 1.92402 4.69317 1.92402 6.40519C1.92402 9.647 3.58979 12.5054 6.12234 14.182C4.57673 14.1314 3.12061 13.7113 1.84859 13.0116C1.84859 13.0521 1.84859 13.09 1.84859 13.1305C1.84859 17.6554 5.10088 21.4312 9.41938 22.2891C8.62676 22.5029 7.79451 22.6155 6.93285 22.6155C6.32433 22.6155 5.7337 22.5586 5.15585 22.4485C6.35757 26.1598 9.84253 28.86 13.9718 28.9359C10.7425 31.4401 6.67461 32.9344 2.25129 32.9344C1.48936 32.9344 0.738925 32.8902 0 32.8041C4.17787 35.455 9.13685 37 14.4666 37C31.8249 37 41.3172 22.7674 41.3172 10.4227C41.3172 10.019 41.3095 9.6141 41.2903 9.21425C43.1363 7.89829 44.7382 6.25208 46 4.3781Z" fill="#FE9664"/>
</svg>
